<svg width="185" height="42" viewBox="0 0 185 42" fill="none" xmlns="http://www.w3.org/2000/svg">
<g id="logo.503c4e96 1">
<path id="Vector" d="M54.7826 31.0088C52.663 31.0088 50.8904 30.2875 49.4648 28.8447C48.0579 27.402 47.3545 25.6177 47.3545 23.4915C47.3545 21.3654 48.0579 19.581 49.4648 18.1383C50.8904 16.6956 52.663 15.9742 54.7826 15.9742C56.152 15.9742 57.3994 16.3065 58.5248 16.9708C59.6503 17.6352 60.5038 18.5275 61.0853 19.6475L57.9621 21.4983C57.6807 20.9098 57.2493 20.4447 56.6678 20.1031C56.1051 19.7614 55.4673 19.5905 54.7545 19.5905C53.6665 19.5905 52.7661 19.9607 52.0534 20.701C51.3406 21.4224 50.9842 22.3525 50.9842 23.4915C50.9842 24.6115 51.3406 25.5417 52.0534 26.282C52.7661 27.0034 53.6665 27.3641 54.7545 27.3641C55.486 27.3641 56.1332 27.2027 56.6959 26.88C57.2775 26.5383 57.7089 26.0732 57.9902 25.4847L61.1416 27.3071C60.5226 28.4271 59.6503 29.3288 58.5248 30.0122C57.3994 30.6766 56.152 31.0088 54.7826 31.0088ZM63.0613 30.6102V9.82373H66.6909V30.6102H63.0613ZM81.9994 28.8447C80.5553 30.2875 78.7918 31.0088 76.7097 31.0088C74.6276 31.0088 72.8641 30.2875 71.42 28.8447C69.9943 27.3831 69.2815 25.5986 69.2815 23.4915C69.2815 21.3844 69.9943 19.6095 71.42 18.1668C72.8641 16.7051 74.6276 15.9742 76.7097 15.9742C78.7918 15.9742 80.5553 16.7051 81.9994 18.1668C83.4436 19.6095 84.166 21.3844 84.166 23.4915C84.166 25.5986 83.4436 27.3831 81.9994 28.8447ZM73.9804 26.3105C74.712 27.0508 75.6215 27.421 76.7097 27.421C77.7979 27.421 78.7074 27.0508 79.439 26.3105C80.1705 25.5702 80.5363 24.6305 80.5363 23.4915C80.5363 22.3525 80.1705 21.4129 79.439 20.6725C78.7074 19.9322 77.7979 19.562 76.7097 19.562C75.6215 19.562 74.712 19.9322 73.9804 20.6725C73.2679 21.4129 72.9112 22.3525 72.9112 23.4915C72.9112 24.6305 73.2679 25.5702 73.9804 26.3105ZM96.0046 16.3729H99.6342V30.6102H96.0046V29.0156C95.1232 30.3444 93.7255 31.0088 91.8122 31.0088C90.2738 31.0088 88.9985 30.4868 87.9856 29.4427C86.9916 28.3986 86.4943 26.956 86.4943 25.1146V16.3729H90.124V24.659C90.124 25.6081 90.3772 26.339 90.8837 26.8515C91.3901 27.3451 92.0654 27.5919 92.9095 27.5919C93.8472 27.5919 94.5977 27.2977 95.1605 26.7092C95.7232 26.1207 96.0046 25.2379 96.0046 24.061V16.3729ZM113.622 10.678H117.252V30.6102H113.622V28.9302C112.553 30.316 111.034 31.0088 109.064 31.0088C107.169 31.0088 105.547 30.2875 104.197 28.8447C102.864 27.3831 102.199 25.5986 102.199 23.4915C102.199 21.3844 102.864 19.6095 104.197 18.1668C105.547 16.7051 107.169 15.9742 109.064 15.9742C111.034 15.9742 112.553 16.6671 113.622 18.0529V10.678ZM106.926 26.3959C107.676 27.1363 108.614 27.5064 109.74 27.5064C110.865 27.5064 111.794 27.1363 112.525 26.3959C113.257 25.6366 113.622 24.6685 113.622 23.4915C113.622 22.3146 113.257 21.3559 112.525 20.6156C111.794 19.8562 110.865 19.4766 109.74 19.4766C108.614 19.4766 107.676 19.8562 106.926 20.6156C106.194 21.3559 105.829 22.3146 105.829 23.4915C105.829 24.6685 106.194 25.6366 106.926 26.3959ZM128.759 15.9742C130.654 15.9742 132.267 16.7051 133.599 18.1668C134.95 19.6095 135.625 21.3844 135.625 23.4915C135.625 25.5986 134.95 27.3831 133.599 28.8447C132.267 30.2875 130.654 31.0088 128.759 31.0088C126.79 31.0088 125.27 30.316 124.201 28.9302V30.6102H120.572V10.678H124.201V18.0529C125.27 16.6671 126.79 15.9742 128.759 15.9742ZM125.299 26.3959C126.03 27.1363 126.959 27.5064 128.084 27.5064C129.21 27.5064 130.138 27.1363 130.87 26.3959C131.62 25.6366 131.995 24.6685 131.995 23.4915C131.995 22.3146 131.62 21.3559 130.87 20.6156C130.138 19.8562 129.21 19.4766 128.084 19.4766C126.959 19.4766 126.03 19.8562 125.299 20.6156C124.567 21.3559 124.201 22.3146 124.201 23.4915C124.201 24.6685 124.567 25.6366 125.299 26.3959ZM138.185 30.6102V9.82373H141.814V30.6102H138.185ZM155.829 16.3729H159.458V30.6102H155.829V28.9302C154.74 30.316 153.212 31.0088 151.242 31.0088C149.366 31.0088 147.753 30.2875 146.403 28.8447C145.07 27.3831 144.405 25.5986 144.405 23.4915C144.405 21.3844 145.07 19.6095 146.403 18.1668C147.753 16.7051 149.366 15.9742 151.242 15.9742C153.212 15.9742 154.74 16.6671 155.829 18.0529V16.3729ZM149.132 26.3959C149.863 27.1363 150.792 27.5064 151.917 27.5064C153.043 27.5064 153.971 27.1363 154.703 26.3959C155.453 25.6366 155.829 24.6685 155.829 23.4915C155.829 22.3146 155.453 21.3559 154.703 20.6156C153.971 19.8562 153.043 19.4766 151.917 19.4766C150.792 19.4766 149.863 19.8562 149.132 20.6156C148.4 21.3559 148.035 22.3146 148.035 23.4915C148.035 24.6685 148.4 25.6366 149.132 26.3959ZM165.988 20.4163C165.988 20.7959 166.231 21.1091 166.72 21.3559C167.226 21.5837 167.835 21.7925 168.548 21.9824C169.261 22.1532 169.974 22.381 170.687 22.6658C171.399 22.9315 171.999 23.3871 172.488 24.0325C172.994 24.678 173.247 25.4847 173.247 26.4529C173.247 27.9146 172.703 29.0441 171.615 29.8414C170.546 30.6196 169.205 31.0088 167.592 31.0088C164.703 31.0088 162.733 29.8793 161.683 27.6203L164.834 25.8264C165.247 27.0603 166.166 27.6773 167.592 27.6773C168.886 27.6773 169.533 27.2692 169.533 26.4529C169.533 26.0732 169.28 25.7695 168.774 25.5417C168.285 25.2949 167.685 25.0766 166.973 24.8868C166.26 24.6969 165.547 24.4597 164.834 24.1749C164.121 23.8902 163.512 23.444 163.006 22.8366C162.517 22.2102 162.274 21.4319 162.274 20.5017C162.274 19.097 162.78 17.9959 163.793 17.1986C164.825 16.3824 166.101 15.9742 167.62 15.9742C168.764 15.9742 169.805 16.24 170.743 16.7715C171.681 17.2841 172.422 18.0244 172.966 18.9925L169.871 20.701C169.421 19.7329 168.67 19.2488 167.62 19.2488C167.151 19.2488 166.757 19.3532 166.438 19.562C166.138 19.7708 165.988 20.0556 165.988 20.4163ZM183.216 19.9037H180.037V25.8264C180.037 26.32 180.158 26.6807 180.403 26.9085C180.647 27.1363 181.003 27.2692 181.472 27.3071C181.941 27.3261 182.522 27.3166 183.216 27.2786V30.6102C180.721 30.8949 178.958 30.6577 177.926 29.8983C176.914 29.139 176.407 27.7817 176.407 25.8264V19.9037H173.959V16.3729H176.407V13.497L180.037 12.3864V16.3729H183.216V19.9037Z" fill="white"/>
<path id="Vector_2" opacity="0.8" d="M35.5707 19.2708C34.2892 17.6989 32.5232 16.6081 30.556 16.1733C30.1237 14.1608 29.3282 12.4108 28.2042 10.9758C28.1738 10.9261 28.1391 10.8792 28.1004 10.8358C24.3134 6.19832 18.1054 6.21582 13.9206 8.6133C10.341 10.6784 7.2976 15.0358 8.88846 21.2833C5.2225 22.1933 3.52783 25.4308 3.52783 28.3533C3.52783 31.6258 5.63751 35.3183 10.3583 35.6508H28.2388C30.6943 35.6508 33.0288 34.7408 34.8272 33.0608C39.1849 29.2108 38.6142 22.8933 35.5707 19.2708Z" fill="url(#paint0_linear_91_5352)"/>
</g>
<defs>
<linearGradient id="paint0_linear_91_5352" x1="20.7513" y1="7.02051" x2="20.7513" y2="35.6508" gradientUnits="userSpaceOnUse">
<stop stop-color="#307AF0"/>
<stop offset="1" stop-color="#0FCBE3"/>
</linearGradient>
</defs>
</svg>
